<svg width="18" height="18" viewBox="0 0 18 18" fill="none" xmlns="http://www.w3.org/2000/svg">
<path d="M17.4864 12.7199L13.5489 11.0324C13.3807 10.9608 13.1937 10.9457 13.0162 10.9894C12.8387 11.0332 12.6801 11.1334 12.5645 11.275L10.8207 13.4055C8.08409 12.1152 5.88171 9.91281 4.59141 7.17616L6.72188 5.4324C6.86379 5.31698 6.96424 5.15846 7.00801 4.98084C7.05178 4.80322 7.03649 4.61618 6.96445 4.44803L5.27695 0.510531C5.19789 0.329268 5.05806 0.181273 4.88157 0.0920655C4.70508 0.00285767 4.50299 -0.0219716 4.31016 0.021859L0.653906 0.865609C0.467989 0.908541 0.302114 1.01322 0.183352 1.16257C0.0645909 1.31191 -4.28277e-05 1.4971 2.12914e-08 1.68791C2.12914e-08 10.7055 7.30898 18.0004 16.3125 18.0004C16.5034 18.0005 16.6886 17.9359 16.8381 17.8172C16.9875 17.6984 17.0922 17.5325 17.1352 17.3465L17.9789 13.6903C18.0225 13.4965 17.9971 13.2936 17.9072 13.1165C17.8173 12.9394 17.6685 12.7992 17.4864 12.7199Z" fill="#FFC107"/>
</svg>
